<svg width="129" height="12" viewBox="0 0 129 12" fill="none" xmlns="http://www.w3.org/2000/svg">
<g id="MARKDOWN">
<path id="Path" d="M0.75 10.7825C0.825 10.2225 0.8975 9.66249 0.9675 9.10249C1.0375 8.54249 1.1125 7.93499 1.1925 7.27999L1.635 3.69499C1.72 3.04999 1.7975 2.43999 1.8675 1.86499C1.9375 1.28999 2.01 0.697494 2.085 0.0874939H4.5825C4.8225 0.697494 5.05125 1.28124 5.26875 1.83874C5.48625 2.39624 5.7025 2.94999 5.9175 3.49999L7.1925 6.76999H7.3575L8.595 3.50749C8.805 2.95249 9.01375 2.40249 9.22125 1.85749C9.42875 1.31249 9.6475 0.722494 9.8775 0.0874939H12.345C12.42 0.687494 12.4937 1.27499 12.5662 1.84999C12.6388 2.42499 12.7175 3.04249 12.8025 3.70249L13.26 7.30249C13.34 7.95249 13.4163 8.55249 13.4888 9.10249C13.5613 9.65249 13.6325 10.2125 13.7025 10.7825H11.355C11.265 10.0325 11.1775 9.31999 11.0925 8.64499C11.0075 7.96999 10.93 7.33749 10.86 6.74749L10.545 4.21249H10.38L9.45 6.93499C9.225 7.60499 8.99875 8.26874 8.77125 8.92624C8.54375 9.58374 8.3325 10.2025 8.1375 10.7825H6.5025C6.3625 10.4075 6.21125 10.005 6.04875 9.57499C5.88625 9.14499 5.72 8.70624 5.55 8.25874C5.38 7.81124 5.2125 7.37249 5.0475 6.94249L4.0125 4.21249H3.8475L3.54 6.73249C3.47 7.32749 3.39375 7.96374 3.31125 8.64124C3.22875 9.31874 3.1425 10.0325 3.0525 10.7825H0.75Z" fill="white"/>
<path id="Shape" fill-rule="evenodd" clip-rule="evenodd" d="M20.2988 8.96749C20.0913 9.60249 19.8925 10.2075 19.7025 10.7825H22.1775L22.6913 9.02374C22.7382 8.86316 22.7845 8.70441 22.8302 8.54749H26.6821C26.7275 8.7064 26.7735 8.86765 26.82 9.03124C26.99 9.62874 27.155 10.2125 27.315 10.7825H29.865C29.68 10.2125 29.4863 9.61499 29.2838 8.98999C29.0813 8.36499 28.8825 7.75749 28.6875 7.16749L27.495 3.49249C27.28 2.84249 27.0863 2.25249 26.9138 1.72249C26.7413 1.19249 26.565 0.647494 26.385 0.0874939H23.205C23.03 0.627494 22.855 1.16374 22.68 1.69624C22.505 2.22874 22.31 2.82749 22.095 3.49249L20.8875 7.15999C20.7025 7.72999 20.5063 8.33249 20.2988 8.96749ZM26.1528 6.70249H27.3225L27.5325 8.54749H26.6821C26.5616 8.12601 26.4451 7.72101 26.3325 7.33249L26.1528 6.70249ZM26.1528 6.70249H23.3657L24.6825 2.17999H24.8625L26.1528 6.70249ZM23.3657 6.70249L23.1975 7.27999C23.0798 7.68829 22.9574 8.11079 22.8302 8.54749H22.2825L22.545 6.70249H23.3657Z" fill="white"/>
<path id="Path_2" d="M35.865 10.7825C35.865 10.2075 35.865 9.64999 35.865 9.10999C35.865 8.56999 35.865 7.96499 35.865 7.29499V3.66499C35.865 2.97499 35.865 2.35249 35.865 1.79749C35.865 1.24249 35.865 0.672494 35.865 0.0874939C36.19 0.0874939 36.5737 0.0874939 37.0162 0.0874939C37.4587 0.0874939 37.9325 0.0874939 38.4375 0.0874939C38.9425 0.0874939 39.4525 0.0874939 39.9675 0.0874939C40.8375 0.0874939 41.5737 0.183744 42.1762 0.376244C42.7787 0.568744 43.2362 0.889994 43.5487 1.33999C43.8612 1.78999 44.0175 2.40249 44.0175 3.17749C44.0175 3.79249 43.8962 4.34499 43.6537 4.83499C43.4112 5.32499 43.0225 5.71249 42.4875 5.99749C41.9525 6.28249 41.2525 6.42499 40.3875 6.42499L41.34 5.52499L42.795 7.66999C43.02 7.99999 43.26 8.35374 43.515 8.73124C43.77 9.10874 44.0187 9.47624 44.2612 9.83374C44.5037 10.1912 44.7175 10.5075 44.9025 10.7825H42.105C41.835 10.3625 41.575 9.95999 41.325 9.57499C41.075 9.18999 40.8325 8.81499 40.5975 8.44999L38.865 5.71999L40.3275 6.83749H37.845V5.07499H39.63C40.03 5.07499 40.3662 5.02624 40.6387 4.92874C40.9112 4.83124 41.1175 4.66499 41.2575 4.42999C41.3975 4.19499 41.4675 3.87249 41.4675 3.46249C41.4675 3.15749 41.4225 2.91124 41.3325 2.72374C41.2425 2.53624 41.1212 2.38999 40.9687 2.28499C40.8162 2.17999 40.6462 2.10999 40.4587 2.07499C40.2712 2.03999 40.0825 2.02249 39.8925 2.02249H36.5325L38.2875 0.477494C38.2875 1.08249 38.2875 1.66124 38.2875 2.21374C38.2875 2.76624 38.2875 3.37999 38.2875 4.05499V7.29499C38.2875 7.96499 38.2875 8.56999 38.2875 9.10999C38.2875 9.64999 38.2875 10.2075 38.2875 10.7825H35.865Z" fill="white"/>
<path id="Shape_2" fill-rule="evenodd" clip-rule="evenodd" d="M50.9025 9.10999V10.7825H53.3625V9.10999V7.29499V6.19249H53.8575L55.2675 8.20999C55.5475 8.61499 55.8337 9.02624 56.1262 9.44374C56.4187 9.86124 56.73 10.3075 57.06 10.7825H60.0375C59.7975 10.4575 59.52 10.0775 59.205 9.64249C58.89 9.20749 58.5662 8.75999 58.2337 8.29999C57.9012 7.83999 57.59 7.40999 57.3 7.00999L55.8542 5.01133L57.1575 3.40249C57.6025 2.84749 58.0462 2.29749 58.4887 1.75249C58.9312 1.20749 59.385 0.652494 59.85 0.0874939H57.0075C56.6175 0.602494 56.275 1.05374 55.98 1.44124C55.685 1.82874 55.3875 2.21749 55.0875 2.60749L53.8275 4.25749H53.3625V3.66499V1.79749V0.0874939H50.9025V1.79749V3.66499V7.29499V9.10999ZM53.3625 4.25749V6.19249H53.1675V4.25749H53.3625Z" fill="white"/>
<path id="Shape_3" fill-rule="evenodd" clip-rule="evenodd" d="M66.0375 9.10999V10.7825H67.185H68.3925H69.7425C70.7875 10.7825 71.6725 10.645 72.3975 10.37C73.1225 10.095 73.7062 9.71249 74.1487 9.22249C74.5912 8.73249 74.9137 8.16124 75.1162 7.50874C75.3187 6.85624 75.42 6.15249 75.42 5.39749C75.42 4.55249 75.305 3.80124 75.075 3.14374C74.845 2.48624 74.5112 1.92999 74.0737 1.47499C73.6362 1.01999 73.1 0.674994 72.465 0.439994C71.83 0.204994 71.105 0.0874939 70.29 0.0874939H68.7937H67.3612H66.0375V1.79749V3.66499V7.29499V9.10999ZM69.735 8.80999H68.505V7.82749V6.70249V4.24249V3.07624V2.05999H69.8625C70.3825 2.05999 70.83 2.13874 71.205 2.29624C71.58 2.45374 71.8887 2.67874 72.1312 2.97124C72.3737 3.26374 72.5537 3.61249 72.6712 4.01749C72.7887 4.42249 72.8475 4.87249 72.8475 5.36749C72.8475 6.02249 72.7475 6.60999 72.5475 7.12999C72.3475 7.64999 72.0212 8.05999 71.5687 8.35999C71.1162 8.65999 70.505 8.80999 69.735 8.80999Z" fill="white"/>
<path id="Shape_4" fill-rule="evenodd" clip-rule="evenodd" d="M84.51 10.7562C85.215 11.0537 86.05 11.2025 87.015 11.2025C88.2 11.2025 89.2 10.96 90.015 10.475C90.83 9.98999 91.4488 9.32999 91.8713 8.49499C92.2938 7.65999 92.505 6.70999 92.505 5.64499C92.505 4.87499 92.39 4.15499 92.16 3.48499C91.93 2.81499 91.5838 2.22499 91.1213 1.71499C90.6588 1.20499 90.08 0.806244 89.385 0.518744C88.69 0.231244 87.8775 0.0874939 86.9475 0.0874939C85.7225 0.0874939 84.7013 0.334994 83.8838 0.829994C83.0663 1.32499 82.4513 1.99374 82.0388 2.83624C81.6263 3.67874 81.42 4.61999 81.42 5.65999C81.42 6.39499 81.5313 7.09499 81.7538 7.75999C81.9763 8.42499 82.315 9.01624 82.77 9.53374C83.225 10.0512 83.805 10.4587 84.51 10.7562ZM88.275 8.88874C87.905 9.07624 87.4725 9.16999 86.9775 9.16999C86.4775 9.16999 86.0413 9.07624 85.6688 8.88874C85.2963 8.70124 84.9863 8.44374 84.7388 8.11624C84.4913 7.78874 84.305 7.41374 84.18 6.99124C84.055 6.56874 83.9925 6.11999 83.9925 5.64499C83.9925 5.16999 84.0575 4.71999 84.1875 4.29499C84.3175 3.86999 84.5075 3.49374 84.7575 3.16624C85.0075 2.83874 85.3188 2.58249 85.6913 2.39749C86.0638 2.21249 86.4925 2.11999 86.9775 2.11999C87.4475 2.11999 87.865 2.20999 88.23 2.38999C88.595 2.56999 88.9038 2.81999 89.1563 3.13999C89.4088 3.45999 89.6013 3.83374 89.7338 4.26124C89.8663 4.68874 89.9325 5.14999 89.9325 5.64499C89.9325 6.11499 89.8713 6.56124 89.7488 6.98374C89.6263 7.40624 89.4425 7.78249 89.1975 8.11249C88.9525 8.44249 88.645 8.70124 88.275 8.88874Z" fill="white"/>
<path id="Path_3" d="M101.34 10.7825C101.2 10.2525 101.05 9.68624 100.89 9.08374C100.73 8.48124 100.58 7.92249 100.44 7.40749L99.555 4.04749C99.395 3.45249 99.2213 2.80124 99.0338 2.09374C98.8463 1.38624 98.67 0.717494 98.505 0.0874939H101.288C101.423 0.742494 101.565 1.43124 101.715 2.15374C101.865 2.87624 102.008 3.56249 102.143 4.21249L102.885 7.84999H103.073L103.838 4.16749C103.928 3.74749 104.021 3.30374 104.119 2.83624C104.216 2.36874 104.315 1.89999 104.415 1.42999C104.515 0.959994 104.61 0.512494 104.7 0.0874939H107.333C107.473 0.742494 107.619 1.42374 107.771 2.13124C107.924 2.83874 108.073 3.52249 108.218 4.18249L109.013 7.84999H109.193L109.95 4.15999C110.08 3.52999 110.219 2.85249 110.366 2.12749C110.514 1.40249 110.653 0.722494 110.783 0.0874939H113.573C113.398 0.722494 113.216 1.38999 113.029 2.08999C112.841 2.78999 112.668 3.43499 112.508 4.02499L111.593 7.40749C111.448 7.93749 111.295 8.50249 111.135 9.10249C110.975 9.70249 110.823 10.2625 110.678 10.7825H107.678C107.538 10.1825 107.39 9.55374 107.235 8.89624C107.08 8.23874 106.935 7.61249 106.8 7.01749L106.005 3.62749H105.818L105.053 7.01749C104.923 7.60749 104.781 8.23499 104.629 8.89999C104.476 9.56499 104.333 10.1925 104.198 10.7825H101.34Z" fill="white"/>
<path id="Path_4" d="M119.573 10.7825C119.573 10.2075 119.573 9.64999 119.573 9.10999C119.573 8.56999 119.573 7.96499 119.573 7.29499V3.66499C119.573 2.97499 119.573 2.35249 119.573 1.79749C119.573 1.24249 119.573 0.672494 119.573 0.0874939H121.725C122.225 0.817494 122.698 1.50624 123.143 2.15374C123.588 2.80124 124.033 3.44999 124.478 4.09999L126.218 6.61999H126.398V3.66499C126.398 2.97499 126.398 2.35249 126.398 1.79749C126.398 1.24249 126.398 0.672494 126.398 0.0874939H128.715C128.715 0.672494 128.715 1.24249 128.715 1.79749C128.715 2.35249 128.715 2.97499 128.715 3.66499V7.29499C128.715 7.96499 128.715 8.56999 128.715 9.10999C128.715 9.64999 128.715 10.2075 128.715 10.7825H126.585C126.175 10.1825 125.745 9.55749 125.295 8.90749C124.845 8.25749 124.353 7.54749 123.818 6.77749L122.055 4.22749H121.883V7.29499C121.883 7.96499 121.883 8.56999 121.883 9.10999C121.883 9.64999 121.883 10.2075 121.883 10.7825H119.573Z" fill="white"/>
</g>
</svg>
